cyclingleg_Default_states
version=1
nRows=8
nColumns=49
inDegrees=yes

# SIMM Motion File Header:
name cyclingleg_Default_states
datacolumns 49
datarows 8
otherdata 1
range 0.22546948 0.22844282
endheader
time	/jointset/bb/crank_angle/value	/jointset/bb/crank_angle/speed	/jointset/spindle/pedal_angle_r/value	/jointset/spindle/pedal_angle_r/speed	/jointset/ground_pelvis/pelvis_tilt/value	/jointset/ground_pelvis/pelvis_tilt/speed	/jointset/ground_pelvis/pelvis_list/value	/jointset/ground_pelvis/pelvis_list/speed	/jointset/ground_pelvis/pelvis_rotation/value	/jointset/ground_pelvis/pelvis_rotation/speed	/jointset/ground_pelvis/pelvis_tx/value	/jointset/ground_pelvis/pelvis_tx/speed	/jointset/ground_pelvis/pelvis_ty/value	/jointset/ground_pelvis/pelvis_ty/speed	/jointset/ground_pelvis/pelvis_tz/value	/jointset/ground_pelvis/pelvis_tz/speed	/jointset/hip_r/hip_angle_r/value	/jointset/hip_r/hip_angle_r/speed	/jointset/hip_r/hip_adduction_r/value	/jointset/hip_r/hip_adduction_r/speed	/jointset/hip_r/hip_rotation_r/value	/jointset/hip_r/hip_rotation_r/speed	/jointset/knee_r/knee_angle_r/value	/jointset/knee_r/knee_angle_r/speed	/jointset/knee_r/tib_tx_r/value	/jointset/knee_r/tib_tx_r/speed	/jointset/knee_r/tib_ty_r/value	/jointset/knee_r/tib_ty_r/speed	/jointset/tib_pat_r/pat_angle_r/value	/jointset/tib_pat_r/pat_angle_r/speed	/jointset/tib_pat_r/pat_tx_r/value	/jointset/tib_pat_r/pat_tx_r/speed	/jointset/tib_pat_r/pat_ty_r/value	/jointset/tib_pat_r/pat_ty_r/speed	/jointset/ankle_r/ankle_angle_r/value	/jointset/ankle_r/ankle_angle_r/speed	/jointset/subtalar_r/subtalar_angle_r/value	/jointset/subtalar_r/subtalar_angle_r/speed	/jointset/mtp_r/mtp_angle_r/value	/jointset/mtp_r/mtp_angle_r/speed	/forceset/bifemlh_r/activation	/forceset/bifemlh_r/fiber_length	/forceset/bifemsh_r/activation	/forceset/bifemsh_r/fiber_length	/forceset/glut_max2_r/activation	/forceset/glut_max2_r/fiber_length	/forceset/vas_int_r/activation	/forceset/vas_int_r/fiber_length
      0.22546948	   -194.57658243	  -1595.52803768	    197.83918271	    858.94838744	      0.00000000	     -0.00000000	     -0.00000000	      0.00000000	     -0.00000000	     -0.00000000	     -0.10000000	     -0.00000000	     -0.05000000	     -0.00000000	     -0.00000000	     -0.00000000	     38.37019890	    201.82914539	      4.38325588	      0.73603133	      1.00146617	    -72.25058470	    -56.94677732	   -860.25613145	      0.00457765	      0.07422310	     -0.47504195	     -0.25585505	     17.32488622	     23.13682331	      0.04370958	     -0.24966242	     -0.02303665	      0.03188842	     22.25413571	    -76.88270545	      0.00000000	      0.00000000	     -0.00000000	      0.00000000	      0.02332300	      0.11800326	      0.02139960	      0.16819045	      0.02139960	      0.12857138	      0.13970823	      0.12502561
      0.22586196	   -195.20147873	  -1588.81816326	    198.17567872	    855.78765226	      0.00000000	     -0.00000000	     -0.00000000	      0.00000000	     -0.00000000	     -0.00000000	     -0.10000000	     -0.00000000	     -0.05000000	     -0.00000000	     -0.00000000	     -0.00000000	     38.44994759	    204.53522812	      4.38353272	      0.67461134	      0.97314094	    -72.08683322	    -57.28465001	   -861.43738817	      0.00460647	      0.07260510	     -0.47514260	     -0.25703490	     17.33384521	     22.51652849	      0.04361140	     -0.25059866	     -0.02302413	      0.03188461	     22.22436457	    -74.82422850	      0.00000000	      0.00000000	     -0.00000000	      0.00000000	      0.02330560	      0.11786863	      0.02139231	      0.16799788	      0.02139231	      0.12862982	      0.13887842	      0.12530891
      0.22635942	   -195.98976430	  -1580.42561939	    198.60045089	    852.00722807	      0.00000000	     -0.00000000	      0.00000000	      0.00000000	     -0.00000000	     -0.00000000	     -0.10000000	     -0.00000000	     -0.05000000	     -0.00000000	     -0.00000000	     -0.00000000	     38.55252000	    207.82072538	      4.38384884	      0.59622816	      0.93733478	    -71.86588965	    -57.71350313	   -862.67697323	      0.00464206	      0.07048580	     -0.47527082	     -0.25844609	     17.34485151	     21.73402362	      0.04348646	     -0.25171106	     -0.02300827	      0.03187379	     22.18779130	    -72.21526081	      0.00000000	      0.00000000	     -0.00000000	      0.00000000	      0.02328368	      0.11769800	      0.02138313	      0.16775382	      0.02138313	      0.12870515	      0.13783695	      0.12561098
      0.22675726	   -196.61717432	  -1573.69276632	    198.93882709	    849.09680105	      0.00000000	     -0.00000000	      0.00000000	      0.00000000	     -0.00000000	     -0.00000000	     -0.10000000	     -0.00000000	     -0.05000000	     -0.00000000	     -0.00000000	     -0.00000000	     38.63569986	    210.32389858	      4.38407351	      0.53315101	      0.90878166	    -71.67457514	    -58.05685997	   -863.41278255	      0.00466976	      0.06873360	     -0.47537385	     -0.25949142	     17.35337400	     21.11080535	      0.04338616	     -0.25252616	     -0.02299560	      0.03185861	     22.15947700	    -70.12654111	      0.00000000	      0.00000000	     -0.00000000	      0.00000000	      0.02326626	      0.11756155	      0.02137583	      0.16755873	      0.02137583	      0.12876636	      0.13701227	      0.12591708
      0.22715509	   -197.24192165	  -1567.07114375	    199.27607471	    846.34948559	      0.00000000	     -0.00000000	      0.00000000	      0.00000000	     -0.00000000	     -0.00000000	     -0.10000000	     -0.00000000	     -0.05000000	     -0.00000000	     -0.00000000	     -0.00000000	     38.71985708	    212.73914810	      4.38427303	      0.46984074	      0.88030616	    -71.47718253	    -58.40047683	   -864.00302513	      0.00469675	      0.06693863	     -0.47547728	     -0.26048639	     17.36164944	     20.49257518	      0.04328554	     -0.25329826	     -0.02298293	      0.03184070	     22.13199279	    -68.04395741	      0.00000000	      0.00000000	     -0.00000000	      0.00000000	      0.02324893	      0.11742511	      0.02136857	      0.16736377	      0.02136857	      0.12882838	      0.13619478	      0.12615166
      0.22755292	   -197.86403715	  -1560.43876797	    199.61225014	    843.69316602	      0.00000000	     -0.00000000	      0.00000000	      0.00000000	     -0.00000000	     -0.00000000	     -0.10000000	     -0.00000000	     -0.05000000	     -0.00000000	     -0.00000000	     -0.00000000	     38.80495585	    215.05487177	      4.38444731	      0.40631415	      0.85191116	    -71.26901145	    -58.74429031	   -864.38990682	      0.00472301	      0.06509768	     -0.47558110	     -0.26141292	     17.36967978	     19.87848013	      0.04318462	     -0.25400995	     -0.02297026	      0.03181796	     22.10533644	    -65.96394547	      0.00000000	      0.00000000	     -0.00000000	      0.00000000	      0.02323169	      0.11728867	      0.02136135	      0.16716902	      0.02136135	      0.12889117	      0.13538440	      0.12643859
      0.22803903	   -198.62062236	  -1552.45076105	    200.02161891	    840.63292594	      0.00000000	     -0.00000000	      0.00000000	      0.00000000	     -0.00000000	     -0.00000000	     -0.10000000	     -0.00000000	     -0.05000000	     -0.00000000	     -0.00000000	     -0.00000000	     38.91015994	    217.77352658	      4.38462592	      0.32851597	      0.81733052	    -71.00713000	    -59.16454829	   -864.67118610	      0.00475410	      0.06279441	     -0.47570843	     -0.26247671	     17.37916201	     19.13648942	      0.04306095	     -0.25482168	     -0.02295480	      0.03178680	     22.07388672	    -63.43402586	      0.00000000	      0.00000000	     -0.00000000	      0.00000000	      0.02321076	      0.11712197	      0.02135257	      0.16693138	      0.02135257	      0.12896890	      0.13440376	      0.12672844
      0.22844282	   -199.24614335	  -1545.79461221	    200.36055952	    838.17552523	      0.00000000	     -0.00000000	      0.00000000	      0.00000000	     -0.00000000	     -0.00000000	     -0.10000000	     -0.00000000	     -0.05000000	     -0.00000000	     -0.00000000	     -0.00000000	     38.99853278	    219.92784208	      4.38474551	      0.26377813	      0.78870433	    -70.77881919	    -59.51370402	   -864.68932937	      0.00477906	      0.06083371	     -0.47581458	     -0.26328569	     17.38676576	     18.52645985	      0.04295793	     -0.25543072	     -0.02294197	      0.03175609	     22.04869587	    -61.33918631	      0.00000000	      0.00000000	     -0.00000000	      0.00000000	      0.02319347	      0.11698351	      0.02134533	      0.16673432	      0.02134533	      0.12903427	      0.13359705	      0.12703571
